<?xml version="1.0" encoding="UTF-8" standalone="no"?>
<svg width="1024px" height="1024px" viewBox="0 0 1024 1024" version="1.1" xmlns="http://www.w3.org/2000/svg" xmlns:xlink="http://www.w3.org/1999/xlink">
    <!-- Generator: Sketch 40.3 (33839) - http://www.bohemiancoding.com/sketch -->
    <title>1024</title>
    <desc>Created with Sketch.</desc>
    <defs></defs>
    <g id="Page-1" stroke="none" stroke-width="1" fill="none" fill-rule="evenodd">
        <g id="1024">
            <g id="sock" transform="translate(105.000000, 167.000000)">
                <path d="M479.086392,585.432893 C577.240566,573.392407 653.493477,579.712063 701.068687,565.793465 C737.398377,555.164855 777.005002,522.35571 789.692618,467.298083 C796.800462,436.453749 796.511218,361.901125 796.800462,289.801402 C797.088361,218.037149 800.536561,155.577464 796.800462,95.6798381 C795.791854,79.5096917 813.918692,78.5027549 813.918692,44.3884839 C813.918692,23.9416924 805.215848,10.9813707 798.242465,3.87850513 C793.581168,-0.869343434 500.085567,-0.225832308 495.152811,5.12150809 C487.948841,12.9309509 479.086392,26.2286371 479.086392,44.3884839 C479.086392,74.9828776 506.822772,75.6945306 506.656595,90.4798221 C506.33889,118.747088 518.860606,283.477182 506.656595,356.694808 C502.708095,380.383727 466.281272,384.191348 465.134694,384.188698 C250.078581,383.691583 -45.6370427,374.530701 6.03170508,607.288752 C28.7148635,709.472141 122.953906,724.414221 196.103601,705.891393 C293.211761,681.301848 380.353025,597.544428 479.086392,585.432893 Z" id="Oval" fill="#E89000"></path>
                <path d="M407.59103,528.114221 C524.265833,513.801825 646.315872,557.343258 694.777525,528.114221 C718.217136,513.976913 750.559601,497.306728 768.638523,437.555107 C775.73997,414.08452 797.791662,99.5472564 768.638523,90.4798221 C722.70498,87.7007111 623.706779,91.1759758 623.49001,87.7007111 C623.279521,84.3261251 676.995106,85.3697992 722.70498,83.4599175 C760.58422,81.8772208 789.511387,78.7767675 797.791662,74.8008579 C806.071938,70.8249483 813.918692,65.4836136 813.918692,44.3884839 C813.918692,22.8053112 804.221602,9.56389119 797.097593,2.74822585 C792.961424,-1.20892049 499.478955,0.179167171 494.098986,6.29092245 C487.11375,14.2262944 479.086392,27.1053847 479.086392,44.3884839 C479.086392,67.5242671 507.920383,79.6175665 513.960192,81.538742 C520,83.4599175 573.291628,84.0962033 573.251116,87.7007111 C573.218166,90.6323442 519.900165,96.4370093 519.811159,99.5472564 C519.054768,125.978653 541.59335,339.590787 520,371.596414 C513.184575,381.698225 491.241024,384.206261 479.086392,384.206261 C263.143055,384.206261 -56.1940318,372.398422 10.1665964,607.729864 C46.6043857,670.374734 76.9207382,671.4266 117.495681,675.429756 C218.422854,685.387313 284.121283,543.260146 407.59103,528.114221 Z" id="Oval" fill="#FFB300"></path>
                <path d="M434.68694,447.949007 C478.594061,442.562959 632.857179,480.229525 645.924515,473.147098 C667.500785,461.452874 606.081961,444.079247 539.595088,428.376813 C465.2776,410.824994 468.757274,384.199583 463.511584,384.18971 C310.835772,383.902361 114.199984,380.908388 35.7765735,461.069162 C3.58920448,493.969599 -17.1733112,560.16282 66.4868769,592.534525 C150.147065,624.906229 311.217193,463.094933 434.68694,447.949007 Z" id="Oval" fill="#FFE000"></path>
            </g>
            <g id="pipe" transform="translate(597.000000, 143.000000)">
                <path d="M305.908371,34.169889 C323.068779,24.4529872 253.341333,2.94413312 154.829161,2.94413312 C56.3169894,2.94413312 -14.0258668,26.4246386 3.43802435,36.6610723 C20.9019155,46.8975061 32.4106379,55.2462143 155.323243,55.2462143 C278.235848,55.2462143 288.747962,43.8867907 305.908371,34.169889 Z" id="Oval" fill="#E79000"></path>
                <path d="M290.170675,27 C290.170675,17.3919003 253.341333,0.89001763 154.829161,0.89001763 C56.3169894,0.89001763 20.7544992,16.8766035 20.7544992,27 C20.7544992,34.3372104 47.7684876,40.5303058 59.9430126,42.8461575 C82.7534488,47.1851842 103.189275,43.1356125 100.615308,59.1790702 C99.830985,64.0677361 97.602237,73.099185 95.2762458,81.7819823 C93.6237538,87.950644 90.8632568,94.5549212 90.8439658,100.006071 C90.8158931,107.938693 95.4601117,113.106595 106.625746,114.058813 C137.031573,116.651857 116.797212,68.0179342 116.797212,59.1790702 C116.797212,46.2485569 137.03158,45.345594 154.829161,45.345594 C229.988759,45.345594 249.772184,41.981326 264.432247,38.7204745 C279.09231,35.459623 290.170675,31.4600988 290.170675,27 Z" id="Oval" fill="#51ADFF"></path>
                <path d="M257.902444,31.5265145 C272.727966,22.9602486 262.184897,0.935117989 154.138885,0.935117989 C46.0928731,0.935117989 27.5200704,19.9213229 43.5950076,27.0086234 C52.549214,30.9564554 67.7279034,35.1080102 88.2726706,36.7117128 C104.610663,37.9870392 123.89388,38.1907025 149.356425,31.5265145 C206.837718,16.4822156 243.076923,40.0927805 257.902444,31.5265145 Z" id="Oval" fill="#00D6FF"></path>
                <path d="M94.6879109,110.418035 C98.3257588,113.042519 106.841071,115.734495 107.811382,109.35834 C108.781694,102.982185 97.0411498,105.491203 97.0411498,95.3135841 C97.0411498,81.1099427 99.7096226,63.2523165 99.7096226,63.2523165 C99.7096226,63.2523165 97.6909658,74.457921 93.6022268,86.0941585 C89.5134878,97.730396 89.9764905,107.019034 94.6879109,110.418035 Z" id="Oval-2" fill="#00D6FF"></path>
            </g>
        </g>
    </g>
</svg>